# xmcd
#
# Track frame offsets:
#	150
#	16582
#	34353
#	60998
#	82661
#	108413
#	123478
#	145200
#	164294
#	194359
#	223287
#	244207
#	298787
#
# Disc length: 4291 seconds
#
# Revision: 1
# Processed by: cddbd v1.5.2PL0 Copyright (c) Steve Scherf et al.
# Submitted via: audiograbber 1.83.01
#
DISCID=b710c10d
DTITLE=Chris Duarte Group - Vantage Point
DYEAR=2008
DGENRE=Bkues-rock
TTITLE0=The Best I Can Do
TTITLE1=Satisfy
TTITLE2=Slapstick
TTITLE3=More Boogie
TTITLE4=Troubles On Me
TTITLE5=Let's Have a Party
TTITLE6=The End of Me and You
TTITLE7=Blow Your Mind
TTITLE8=She Don't Live Here Anymore
TTITLE9=Babylon
TTITLE10=Woodpecker
TTITLE11=Blow Your Mind (Extended Version)
TTITLE12=Troubles On Me (Extended Version)
EXTD=
EXTT0=
EXTT1=
EXTT2=
EXTT3=
EXTT4=
EXTT5=
EXTT6=
EXTT7=
EXTT8=
EXTT9=
EXTT10=
EXTT11=
EXTT12=
PLAYORDER=
